<svg width="1280" height="413" viewBox="0 0 1280 413" fill="none" xmlns="http://www.w3.org/2000/svg">
<g clip-path="url(#clip0_990_35512)">
<rect width="1280" height="413" fill="#E6F6F8"/>
<g opacity="0.3" filter="url(#filter0_d_990_35512)">
<path d="M0 212.529C0 212.529 175.885 368.062 409.7 353.901C635.177 340.087 869.283 113.409 1078.81 69.8921C1203.15 43.9895 1280 77.1449 1280 77.1449V513H0V212.529Z" fill="url(#paint0_linear_990_35512)"/>
</g>
<mask id="mask0_990_35512" style="mask-type:alpha" maskUnits="userSpaceOnUse" x="0" y="3" width="1280" height="352">
<path opacity="0.6" d="M0 212.529C0 212.529 175.885 368.062 409.7 353.901C635.177 340.087 869.284 113.409 1078.81 69.8921C1203.15 43.9895 1280 77.1449 1280 77.1449V3H0V212.529Z" fill="url(#paint1_linear_990_35512)"/>
</mask>
<g mask="url(#mask0_990_35512)">
<path opacity="0.7" d="M60.0001 130.242C135 104 251.054 75.3805 465.672 219.606C680.29 363.832 770 334.115 770 334.115L891 526H-68.4999L-68.5 219.606C-68.5 219.606 -14.9998 156.483 60.0001 130.242Z" fill="url(#paint2_linear_990_35512)"/>
</g>
</g>
<defs>
<filter id="filter0_d_990_35512" x="-15" y="44" width="1310" height="483" filterUnits="userSpaceOnUse" color-interpolation-filters="sRGB">
<feFlood flood-opacity="0" result="BackgroundImageFix"/>
<feColorMatrix in="SourceAlpha" type="matrix" values="0 0 0 0 0 0 0 0 0 0 0 0 0 0 0 0 0 0 127 0" result="hardAlpha"/>
<feOffset dy="-1"/>
<feGaussianBlur stdDeviation="7.5"/>
<feColorMatrix type="matrix" values="0 0 0 0 0.117647 0 0 0 0 0.129412 0 0 0 0 0.168627 0 0 0 0.08 0"/>
<feBlend mode="normal" in2="BackgroundImageFix" result="effect1_dropShadow_990_35512"/>
<feBlend mode="normal" in="SourceGraphic" in2="effect1_dropShadow_990_35512" result="shape"/>
</filter>
<linearGradient id="paint0_linear_990_35512" x1="1312.61" y1="278.448" x2="335.654" y2="368.926" gradientUnits="userSpaceOnUse">
<stop offset="8.07343e-08" stop-color="#008092"/>
<stop offset="1" stop-color="#00A4BC"/>
</linearGradient>
<linearGradient id="paint1_linear_990_35512" x1="1312.61" y1="278.448" x2="335.654" y2="368.927" gradientUnits="userSpaceOnUse">
<stop offset="8.07343e-08" stop-color="#008092"/>
<stop offset="1" stop-color="#00A4BC"/>
</linearGradient>
<linearGradient id="paint2_linear_990_35512" x1="590.699" y1="600.334" x2="150.494" y2="251.9" gradientUnits="userSpaceOnUse">
<stop stop-color="#008092"/>
<stop offset="1" stop-color="#00A4BC"/>
</linearGradient>
<clipPath id="clip0_990_35512">
<rect width="1280" height="413" fill="white"/>
</clipPath>
</defs>
</svg>
