<svg width="696" height="530" viewBox="0 0 696 530" fill="none" xmlns="http://www.w3.org/2000/svg">
<ellipse opacity="0.1" cx="405.5" cy="491" rx="290.5" ry="20" fill="#0092A6"/>
<path d="M488.735 0C507.356 0 522.451 15.9875 522.451 35.7091V443.748L522.452 454.606C522.452 474.476 537.489 490.626 556.167 490.989L227.433 491C190.191 491 160 459.025 160 419.582V35.7091C160 15.9875 175.095 0 193.716 0H488.735Z" fill="#00A2B9"/>
<path d="M650.999 262.236C650.998 243.132 636.376 227.645 618.339 227.644C600.299 227.643 585.675 243.13 585.675 262.236L585.674 379.405L634.143 379.403C643.453 379.402 651 371.409 651 361.548L650.999 262.236Z" fill="#005C69"/>
<path d="M617.987 227.645L522.453 227.649L522.452 454.94C522.452 474.852 537.694 490.994 556.494 490.993C572.608 490.992 585.67 477.157 585.67 460.091L585.672 263.355L585.675 262.236C585.675 243.255 600.11 227.844 617.987 227.645Z" fill="#00879A"/>
<path d="M618.687 227.645H619.385V227.661C619.153 227.653 618.92 227.648 618.687 227.645Z" fill="#00879A"/>
<rect opacity="0.8" x="228.74" y="251.865" width="245.5" height="40.9167" rx="20.4583" fill="white"/>
<rect opacity="0.8" x="245.107" y="174.578" width="229.133" height="40.9167" rx="20.4583" fill="white"/>
<rect opacity="0.8" x="350.944" y="406.439" width="122.75" height="40.9167" rx="20.4583" fill="white"/>
<rect opacity="0.8" x="302.39" y="97.2906" width="171.85" height="40.9167" rx="20.4583" fill="white"/>
<rect opacity="0.8" x="228.194" y="329.152" width="245.5" height="40.9167" rx="20.4583" fill="white"/>
<path d="M247.463 310C242.683 310 238.927 306.968 238.927 303.109C238.927 267.276 202.732 237.782 158 237.782C113.61 237.782 77.0732 267 77.0732 303.109C77.0732 306.968 73.3171 310 68.5366 310C63.7561 310 60 306.968 60 303.109C60 259.558 104.049 224 158 224C211.951 224 256 259.558 256 303.109C256 306.968 252.244 310 247.463 310Z" fill="#302B27"/>
<path d="M244.274 354.015C244.274 360.986 250.09 366.842 257.014 366.842H257.291C264.215 366.842 270.031 360.986 270.031 354.015V325.853C270.031 318.882 264.215 313.027 257.291 313.027H257.014C250.09 313.027 244.274 318.882 244.274 325.853V354.015Z" fill="#25262B"/>
<path d="M228.488 359.034C228.488 365.448 233.751 370.745 240.12 370.745H250.921C257.291 370.745 262.553 365.448 262.553 359.034V313.863C262.553 307.45 257.291 302.152 250.921 302.152H240.12C233.751 302.152 228.488 307.45 228.488 313.863V359.034Z" fill="#FFD151"/>
<path d="M250.921 302.152H240.12C233.751 302.152 228.489 307.45 228.489 313.863V359.034C228.489 365.448 233.751 370.745 240.12 370.745H250.921" fill="#25262B"/>
<path d="M135.68 408.129L82.4796 375.928L72.0326 396.742L122.794 428.068L135.68 408.129Z" fill="#F5BC1C"/>
<path opacity="0.6" d="M125.817 421.786L75.3298 391.482L72.0326 396.742L122.794 428.069L125.817 421.786Z" fill="#D4AE43"/>
<path d="M85.5493 375.991L72.8183 398.407L53.2982 386.572C53.2982 386.572 46.7655 390.18 42.1569 390.881C32.0345 392.422 24.6701 389.35 17.459 382.034C9.69591 374.157 7.08003 365.754 9.19791 354.864C11.2794 344.162 16.4008 336.939 26.5231 333.057C36.2749 329.317 45.3173 329.835 52.9569 336.992C57.9293 341.651 60.4209 352.809 60.4209 352.809C60.4209 352.809 59.7331 345.3 61.5618 341.804C63.7528 337.616 65.7032 334.341 70.3254 333.531C75.3448 332.651 79.3841 333.977 83.5246 338.951C87.6651 343.924 86.5004 348.05 82.8908 355.324C80.1626 360.823 71.8225 366.231 71.8225 366.231L85.5493 375.991Z" fill="#F5F5F5"/>
<path opacity="0.2" d="M16.702 339.276C16.56 342.79 16.4662 348.015 16.9065 351.886C16.9552 352.314 17.0014 352.727 17.0464 353.13C17.5778 357.884 17.9258 360.999 19.8592 365.703C19.9188 365.848 19.9774 365.991 20.035 366.131C21.3276 369.282 22.1433 371.27 24.4522 373.927C28.4091 378.481 31.9278 380.735 37.9031 381.494C43.6678 382.226 52.3382 377.875 52.3382 377.875L76.374 392.146L72.8183 398.406L53.2983 386.572C53.2983 386.572 46.7656 390.18 42.157 390.881C32.0346 392.422 24.6702 389.35 17.4591 382.034C9.69597 374.157 7.08009 365.754 9.19798 354.864C10.4523 348.415 12.8106 343.229 16.702 339.276Z" fill="#CACACA"/>
<path opacity="0.2" d="M51.9423 361.355C53.7282 363.73 58.2591 365.042 57.9704 365.975C57.6817 366.908 53.2196 366.537 50.7875 365.088C48.5242 363.739 47.3617 362.267 46.6893 359.708C46.1249 357.559 46.19 356.061 47.0892 354.031C47.6919 352.671 49.0748 350.9 49.3838 350.997C49.6928 351.094 49.0499 354.184 49.4853 356.148C49.9724 358.345 50.5925 359.56 51.9423 361.355Z" fill="#CACACA"/>
<path opacity="0.6" d="M81.4128 357.668C81.6584 354.833 81.7855 349.914 80.1843 346.842C78.5644 343.733 77.3275 341.48 74.0352 340.325C71.2683 339.354 69.2158 340.24 66.7954 341.285C66.0216 341.619 65.2103 341.969 64.326 342.28C63.2358 342.663 61.8232 343.29 60.8672 343.73C61.0437 343.018 61.2709 342.36 61.5617 341.804C63.7528 337.616 65.7031 334.34 70.3253 333.531C75.3448 332.651 79.384 333.977 83.5245 338.951C87.665 343.924 86.5004 348.05 82.8907 355.324C82.4997 356.112 81.9933 356.899 81.4128 357.668Z" fill="white"/>
<path opacity="0.6" d="M60.1188 355.314C60.1188 355.314 57.0702 346.617 53.3224 342.28C50.7307 339.281 49.1061 337.502 45.5551 335.763C42.3455 334.192 39.8558 334.097 36.804 333.981C35.8047 333.944 34.7452 333.903 33.5805 333.808C30.9832 333.596 27.584 333.614 25.0177 333.675C25.5067 333.46 26.0085 333.254 26.5232 333.057C36.2749 329.317 45.3173 329.836 52.9569 336.993C56.8712 340.66 59.2481 348.354 60.0825 351.463C60.182 353.662 60.1188 355.314 60.1188 355.314Z" fill="white"/>
<path d="M184.32 408.129L237.521 375.928L247.967 396.742L197.206 428.069L184.32 408.129Z" fill="#F5BC1C"/>
<path opacity="0.6" d="M194.183 421.786L244.67 391.482L247.968 396.742L197.206 428.069L194.183 421.786Z" fill="#D4AE43"/>
<path d="M105.83 409.73C109.509 414.809 107.628 429.44 109.39 435.471C112.626 446.55 111.917 446.561 115.862 457.303C120.328 469.46 145.961 474.92 145.961 474.92H174.441C174.441 474.92 192.771 470.149 200.008 460.561C206.157 452.415 210.983 445.008 212.63 435.471C213.925 427.977 209.25 414.841 212.63 409.73C226.038 389.452 235.588 381.803 240.463 357.943C246.007 330.808 241.977 311.019 225.899 288.538C207.602 262.953 185.684 251.447 154.375 252.044C124.189 252.619 103.468 263.682 86.0878 288.538C70.3059 311.108 66.2707 331.14 72.8187 357.943C78.9226 382.928 90.7716 388.941 105.83 409.73Z" fill="#FDC427"/>
<path opacity="0.4" d="M90.1359 298.542C89.1122 300.987 90.2645 303.8 92.7098 304.823C95.1551 305.847 97.9674 304.695 98.9912 302.249L90.1359 298.542ZM101.185 288.41L104.929 291.413H104.929L101.185 288.41ZM111.074 279.547L108.461 275.521V275.521L111.074 279.547ZM124.491 278.721C126.999 277.863 128.336 275.133 127.478 272.625C126.619 270.117 123.89 268.78 121.382 269.639L124.491 278.721ZM94.5635 300.396C98.9912 302.249 98.991 302.25 98.9909 302.25C98.9908 302.25 98.9907 302.25 98.9907 302.251C98.9906 302.251 98.9905 302.251 98.9905 302.251C98.9904 302.251 98.9906 302.251 98.991 302.25C98.9917 302.248 98.9932 302.245 98.9954 302.239C98.9999 302.229 99.0075 302.211 99.018 302.186C99.039 302.137 99.0718 302.06 99.1156 301.959C99.2032 301.756 99.3345 301.457 99.5034 301.081C99.842 300.329 100.327 299.283 100.91 298.117C102.119 295.699 103.588 293.086 104.929 291.413L97.4399 285.408C95.4266 287.918 93.5855 291.298 92.3223 293.826C91.669 295.134 91.1279 296.3 90.7493 297.141C90.5595 297.563 90.4095 297.905 90.3053 298.146C90.2532 298.266 90.2126 298.361 90.1841 298.428C90.1698 298.462 90.1586 298.488 90.1506 298.507C90.1466 298.517 90.1433 298.524 90.1409 298.53C90.1396 298.533 90.1386 298.536 90.1378 298.538C90.1374 298.539 90.137 298.539 90.1367 298.54C90.1365 298.541 90.1364 298.541 90.1363 298.541C90.1361 298.542 90.1359 298.542 94.5635 300.396ZM104.929 291.413C107.817 287.813 109.717 286.15 113.687 283.573L108.461 275.521C103.712 278.603 101.024 280.937 97.4399 285.408L104.929 291.413ZM113.687 283.573C115.419 282.449 118.036 281.245 120.421 280.269C121.573 279.797 122.602 279.406 123.342 279.134C123.71 278.998 124.005 278.892 124.204 278.822C124.303 278.787 124.379 278.76 124.428 278.743C124.452 278.735 124.47 278.729 124.48 278.725C124.486 278.723 124.489 278.722 124.491 278.721C124.492 278.721 124.493 278.721 124.493 278.721C124.493 278.721 124.492 278.721 124.492 278.721C124.492 278.721 124.492 278.721 124.492 278.721C124.491 278.721 124.491 278.721 122.937 274.18C121.382 269.639 121.382 269.639 121.381 269.639C121.381 269.639 121.381 269.639 121.38 269.639C121.38 269.639 121.379 269.64 121.378 269.64C121.376 269.641 121.374 269.641 121.371 269.642C121.365 269.644 121.358 269.647 121.349 269.65C121.331 269.656 121.305 269.665 121.273 269.676C121.208 269.699 121.116 269.731 120.999 269.773C120.766 269.855 120.433 269.975 120.022 270.126C119.203 270.428 118.064 270.86 116.783 271.385C114.301 272.401 110.987 273.881 108.461 275.521L113.687 283.573Z" fill="white"/>
<path opacity="0.6" d="M108.435 425.253C108.243 419.253 108.036 412.775 105.83 409.729C105.126 408.757 104.429 407.818 103.739 406.907C112.265 410.221 121.689 413.165 129.805 413.982C153.251 416.345 168.513 414.665 189.205 403.33C209.782 392.059 217.826 378.861 229.749 359.299L229.756 359.287C230.231 358.507 230.712 357.718 231.201 356.918C235.759 349.452 239.52 340.435 242.609 330.969C243.217 339.318 242.463 348.152 240.463 357.942C236.777 375.985 230.417 384.758 221.738 396.731C218.939 400.591 215.899 404.785 212.63 409.729C210.695 412.656 211.4 418.213 212.114 423.836C212.646 428.033 213.184 432.267 212.63 435.471C210.983 445.008 206.157 452.415 200.008 460.561C192.771 470.149 174.441 474.92 174.441 474.92H145.961C145.961 474.92 120.328 469.46 115.862 457.302C113.376 450.534 112.738 448.026 111.797 444.325C111.244 442.153 110.587 439.569 109.39 435.471C108.684 433.056 108.563 429.261 108.435 425.253Z" fill="#D4AE43"/>
<ellipse opacity="0.2" cx="15.6674" cy="15.4969" rx="15.6674" ry="15.4969" transform="matrix(0.995623 0.0935602 -0.0776156 0.996991 96.9078 332.18)" fill="#FF5E5E"/>
<ellipse opacity="0.2" cx="15.6674" cy="15.4969" rx="15.6674" ry="15.4969" transform="matrix(0.995623 0.0935602 -0.0776156 0.996991 191.41 333.483)" fill="#FF5E5E"/>
<path d="M157.538 371.31C147.75 371.388 136.509 360.882 133.629 364.423C130.749 367.964 133.6 381.015 140.82 387.176C146.116 391.695 150.869 392.734 157.787 392.717C164.006 392.702 168.115 391.942 172.867 388.17C180.213 382.34 182.223 367.722 179.457 365.209C176.69 362.695 166.597 371.237 157.538 371.31Z" fill="#333333"/>
<path d="M177.185 382.704C172.47 380.739 164.185 377.661 157.038 376.948C149.44 376.191 140.267 378.933 135.587 380.588C136.915 383.14 138.653 385.516 140.768 387.304C146.046 391.768 150.784 392.793 157.679 392.776C163.877 392.76 167.972 392.009 172.709 388.281C174.525 386.852 176.014 384.888 177.185 382.704Z" fill="#FF5E5E"/>
<path opacity="0.2" d="M73.2234 359.469C75.6426 346.96 81.3947 322.602 91.5897 308.416C101.397 294.768 107.486 285.82 122.012 277.459C135.197 269.87 144.283 269.092 159.23 266.38C173.27 263.834 199.832 271.429 213.278 273.228C199.037 261.819 187.063 252.04 154.375 252.045C124.189 252.62 103.468 263.684 86.0878 288.54C70.3059 311.109 66.2707 331.141 72.8187 357.944C72.9426 358.451 73.0777 358.96 73.2234 359.469Z" fill="#FFFBEE"/>
<path d="M158.958 433.18C139.019 433.093 108.129 428.629 108.129 428.629C108.129 428.629 107.922 442.417 110.361 454.696C112.303 464.471 116.966 471.878 127.513 480.438C137.946 488.904 148.096 495.267 161.495 495.1C174.552 494.938 184.211 488.925 194.183 480.438C205.022 471.212 206.805 466.1 209.394 454.696C212.171 442.462 213.294 428.629 213.294 428.629C213.294 428.629 179.92 433.272 158.958 433.18Z" fill="#00A2B9"/>
<path opacity="0.6" d="M211.493 443.464C205.273 453.968 196.047 467.708 187.887 472.555C174.689 480.396 169.956 480.548 154.398 480.475C143.909 480.426 130.536 477.177 120.799 474.328C122.717 476.33 124.94 478.349 127.514 480.438C137.947 488.904 148.096 495.267 161.496 495.101C174.552 494.938 184.211 488.925 194.183 480.438C205.022 471.212 206.805 466.1 209.394 454.696C210.243 450.954 210.938 447.063 211.493 443.464Z" fill="#00879A" stroke="#00A2B9" stroke-width="0.8"/>
<path d="M71.7128 354.015C71.7128 360.986 65.8969 366.842 58.9732 366.842H58.6962C51.7725 366.842 45.9565 360.986 45.9565 354.015V325.853C45.9565 318.882 51.7725 313.027 58.6962 313.027H58.9732C65.8969 313.027 71.7128 318.882 71.7128 325.853V354.015Z" fill="#25262B"/>
<path d="M87.4988 359.034C87.4988 365.448 82.2368 370.745 75.867 370.745H65.0659C58.6961 370.745 53.4341 365.448 53.4341 359.034V313.863C53.4341 307.45 58.6961 302.152 65.0659 302.152H75.867C82.2368 302.152 87.4988 307.45 87.4988 313.863V359.034Z" fill="#FFD151"/>
<path d="M65.0659 302.152H75.8669C82.2368 302.152 87.4988 307.45 87.4988 313.863V359.034C87.4988 365.448 82.2368 370.745 75.8669 370.745H65.0659" fill="#25262B"/>
<path d="M97.0745 391.58L65.3748 361.505V370.303L94.1878 397.786C95.4422 398.982 97.0511 399.739 98.7726 399.942L132.044 403.865V397.022L101.717 393.729C99.976 393.54 98.345 392.785 97.0745 391.58Z" fill="#25262B"/>
<path d="M234.451 375.991L247.182 398.407L266.702 386.572C266.702 386.572 273.234 390.18 277.843 390.882C287.965 392.423 295.33 389.35 302.541 382.034C310.304 374.158 312.92 365.754 310.802 354.865C308.721 344.162 303.599 336.939 293.477 333.057C283.725 329.317 274.683 329.836 267.043 336.993C262.071 341.651 259.579 352.809 259.579 352.809C259.579 352.809 260.267 345.3 258.438 341.805C256.247 337.616 254.297 334.341 249.675 333.531C244.655 332.652 240.616 333.977 236.475 338.951C232.335 343.925 233.5 348.05 237.109 355.325C239.837 360.823 248.177 366.232 248.177 366.232L234.451 375.991Z" fill="#F5F5F5"/>
<path opacity="0.2" d="M303.298 339.276C303.44 342.79 303.534 348.016 303.093 351.886C303.045 352.314 302.999 352.728 302.954 353.13C302.422 357.884 302.074 360.999 300.141 365.703C300.081 365.848 300.023 365.991 299.965 366.131C298.672 369.282 297.857 371.271 295.548 373.928C291.591 378.481 288.072 380.735 282.097 381.494C276.332 382.226 267.662 377.875 267.662 377.875L243.626 392.146L247.182 398.407L266.702 386.572C266.702 386.572 273.234 390.18 277.843 390.881C287.965 392.422 295.33 389.35 302.541 382.034C310.304 374.157 312.92 365.754 310.802 354.865C309.548 348.415 307.189 343.229 303.298 339.276Z" fill="#CACACA"/>
<path opacity="0.2" d="M268.058 361.355C266.272 363.73 261.741 365.042 262.03 365.975C262.318 366.909 266.78 366.538 269.213 365.088C271.476 363.74 272.638 362.268 273.311 359.708C273.875 357.56 273.81 356.061 272.911 354.032C272.308 352.671 270.925 350.9 270.616 350.997C270.307 351.094 270.95 354.184 270.515 356.148C270.028 358.345 269.407 359.56 268.058 361.355Z" fill="#CACACA"/>
<path opacity="0.6" d="M238.587 357.668C238.342 354.833 238.214 349.915 239.816 346.842C241.436 343.733 242.672 341.48 245.965 340.325C248.732 339.354 250.784 340.24 253.205 341.285C253.978 341.619 254.79 341.969 255.674 342.28C256.764 342.663 258.177 343.29 259.133 343.731C258.956 343.018 258.729 342.36 258.438 341.804C256.247 337.616 254.297 334.341 249.675 333.531C244.655 332.651 240.616 333.977 236.475 338.951C232.335 343.925 233.5 348.05 237.109 355.325C237.5 356.113 238.007 356.899 238.587 357.668Z" fill="white"/>
<path opacity="0.6" d="M259.881 355.314C259.881 355.314 262.93 346.618 266.678 342.28C269.269 339.281 270.894 337.502 274.445 335.764C277.654 334.192 280.144 334.098 283.196 333.982C284.195 333.944 285.255 333.904 286.42 333.809C289.017 333.596 292.416 333.614 294.982 333.675C294.493 333.461 293.992 333.255 293.477 333.057C283.725 329.317 274.683 329.836 267.043 336.993C263.129 340.66 260.752 348.355 259.917 351.464C259.818 353.663 259.881 355.314 259.881 355.314Z" fill="white"/>
<ellipse cx="128.411" cy="308.719" rx="25.8913" ry="26.0677" fill="#333333"/>
<ellipse cx="12.9702" cy="10.9464" rx="12.9702" ry="10.9464" transform="matrix(0.835569 -0.549386 0.521405 0.85331 106.32 299.036)" fill="white"/>
<ellipse cx="5.40405" cy="3.72364" rx="5.40405" ry="3.72364" transform="matrix(0.78594 -0.618303 0.590198 0.807259 127.649 315.402)" fill="white"/>
<ellipse cx="187.46" cy="308.719" rx="25.8913" ry="26.0677" fill="#333333"/>
<ellipse cx="12.9702" cy="10.9464" rx="12.9702" ry="10.9464" transform="matrix(0.835569 -0.549386 0.521405 0.85331 165.369 299.036)" fill="white"/>
<ellipse cx="5.40405" cy="3.72364" rx="5.40405" ry="3.72364" transform="matrix(0.78594 -0.618303 0.590198 0.807259 186.699 315.402)" fill="white"/>
<rect x="128" y="392" width="22" height="14" rx="3.2" fill="#25262B"/>
</svg>
