<svg width="16" height="17" viewBox="0 0 16 17" fill="none" xmlns="http://www.w3.org/2000/svg">
<g clip-path="url(#clip0_1014_3376)">
<path d="M13.8832 0.5H5.41477C4.85336 0.5 4.31495 0.723019 3.91797 1.12C3.521 1.51697 3.29797 2.05539 3.29797 2.6168V11.0852C3.29797 11.6467 3.52098 12.1852 3.91793 12.5822C4.31489 12.9793 4.85331 13.2025 5.41477 13.2026H13.8832C14.4447 13.2025 14.9831 12.9793 15.38 12.5822C15.777 12.1852 16 11.6467 16 11.0852V2.6168C15.9998 2.05544 15.7768 1.51712 15.3798 1.12018C14.9829 0.723234 14.4446 0.500162 13.8832 0.5ZM14.9419 11.0852C14.9419 11.366 14.8304 11.6353 14.6318 11.8338C14.4333 12.0324 14.164 12.1439 13.8832 12.1439H5.41477C5.13399 12.1439 4.8647 12.0324 4.66616 11.8338C4.46761 11.6353 4.35607 11.366 4.35607 11.0852V2.6168C4.35607 2.33601 4.46761 2.06673 4.66616 1.86818C4.8647 1.66964 5.13399 1.55809 5.41477 1.55809H13.8832C14.164 1.55809 14.4333 1.66964 14.6318 1.86818C14.8304 2.06673 14.9419 2.33601 14.9419 2.6168V11.0852Z" fill="white"/>
<path d="M8.66248 10.2671C8.66248 10.4626 8.72043 10.6537 8.82903 10.8162C8.93762 10.9787 9.09197 11.1054 9.27256 11.1802C9.45314 11.255 9.65185 11.2745 9.84356 11.2364C10.0353 11.1983 10.2114 11.1041 10.3496 10.9659C10.4878 10.8277 10.5819 10.6516 10.6201 10.4599C10.6582 10.2682 10.6386 10.0695 10.5638 9.88891C10.489 9.70832 10.3623 9.55396 10.1998 9.44536C10.0373 9.33677 9.84624 9.27881 9.65077 9.27881C9.38866 9.27881 9.13727 9.38294 8.95193 9.56828C8.76659 9.75362 8.66248 10.005 8.66248 10.2671Z" fill="white"/>
<path d="M9.11926 2.90508V7.96777C9.11926 8.10817 9.17503 8.24281 9.27431 8.34208C9.37358 8.44135 9.50822 8.49712 9.64862 8.49712C9.78901 8.49712 9.92364 8.44135 10.0229 8.34208C10.1222 8.24281 10.178 8.10817 10.178 7.96777V2.90508C10.178 2.76469 10.1222 2.63005 10.0229 2.53078C9.92364 2.4315 9.78901 2.37573 9.64862 2.37573C9.50822 2.37573 9.37358 2.4315 9.27431 2.53078C9.17503 2.63005 9.11926 2.76469 9.11926 2.90508Z" fill="white"/>
<path d="M1.0587 9.61933V5.91416C1.05886 5.63348 1.17047 5.36436 1.369 5.16594C1.56753 4.96753 1.83672 4.85607 2.1174 4.85607H3.91763V3.79736H2.11985C1.84182 3.79728 1.56649 3.85198 1.3096 3.95832C1.05271 4.06466 0.819282 4.22057 0.622654 4.41714C0.426026 4.61371 0.270048 4.8471 0.163631 5.10396C0.0572135 5.36082 0.00244139 5.63613 0.00244141 5.91416V9.61933H1.06115H1.0587Z" fill="white"/>
<path d="M11.6439 12.9601V14.3832C11.6438 14.6638 11.5322 14.933 11.3336 15.1314C11.1351 15.3298 10.8659 15.4413 10.5852 15.4413H2.11986C1.98086 15.4413 1.8432 15.414 1.71476 15.3609C1.58631 15.3077 1.4696 15.2298 1.37128 15.1316C1.27296 15.0333 1.19497 14.9166 1.14176 14.7882C1.08854 14.6598 1.06116 14.5222 1.06116 14.3832V10.678H0V14.3832C-1.16324e-08 14.6612 0.0547721 14.9365 0.16119 15.1934C0.267607 15.4502 0.423584 15.6836 0.620212 15.8802C0.81684 16.0767 1.05027 16.2327 1.30716 16.339C1.56405 16.4453 1.83938 16.5 2.11741 16.5H10.5858C11.1473 16.5 11.6858 16.277 12.0829 15.88C12.4799 15.483 12.7031 14.9446 12.7033 14.3832V12.9601H11.6439Z" fill="white"/>
</g>
<defs>
<clipPath id="clip0_1014_3376">
<rect width="16" height="16" fill="white" transform="translate(0 0.5)"/>
</clipPath>
</defs>
</svg>
