<svg width="20" height="20" viewBox="0 0 20 20" fill="none" xmlns="http://www.w3.org/2000/svg">
<g clip-path="url(#clip0_1224_8526)">
<path d="M9.16675 3.33301H3.33341C2.89139 3.33301 2.46746 3.5086 2.1549 3.82116C1.84234 4.13372 1.66675 4.55765 1.66675 4.99967V16.6663C1.66675 17.1084 1.84234 17.5323 2.1549 17.8449C2.46746 18.1574 2.89139 18.333 3.33341 18.333H15.0001C15.4421 18.333 15.866 18.1574 16.1786 17.8449C16.4912 17.5323 16.6667 17.1084 16.6667 16.6663V10.833" stroke="#6C6966" stroke-width="2" stroke-linecap="round" stroke-linejoin="round"/>
<path d="M15.4167 2.0832C15.7483 1.75168 16.1979 1.56543 16.6667 1.56543C17.1356 1.56543 17.5852 1.75168 17.9167 2.0832C18.2483 2.41472 18.4345 2.86436 18.4345 3.3332C18.4345 3.80204 18.2483 4.25168 17.9167 4.5832L10.1959 12.304C10.0678 12.4322 9.9072 12.5231 9.73137 12.567L8.28365 12.929C7.55127 13.1121 6.88788 12.4487 7.07097 11.7163L7.4329 10.2686C7.47686 10.0927 7.56778 9.93217 7.69594 9.80401L15.4167 2.0832Z" stroke="#6C6966" stroke-width="2" stroke-linecap="round" stroke-linejoin="round"/>
</g>
<defs>
<clipPath id="clip0_1224_8526">
<rect width="20" height="20" fill="white"/>
</clipPath>
</defs>
</svg>
