<svg width="16" height="19" viewBox="0 0 16 19" fill="none" xmlns="http://www.w3.org/2000/svg">
<g clip-path="url(#clip0_1025_3384)">
<path d="M11.9997 8.36778H8.64037C8.56374 8.3651 8.48736 8.37788 8.41577 8.40535C8.34419 8.43282 8.27886 8.47443 8.2237 8.52769C8.16854 8.58095 8.12466 8.64478 8.0947 8.71536C8.06474 8.78594 8.04932 8.86183 8.04932 8.9385C8.04932 9.01518 8.06474 9.09107 8.0947 9.16165C8.12466 9.23223 8.16854 9.29606 8.2237 9.34932C8.27886 9.40258 8.34419 9.44418 8.41577 9.47166C8.48736 9.49913 8.56374 9.51191 8.64037 9.50923H11.9997C12.0763 9.51191 12.1527 9.49913 12.2243 9.47166C12.2959 9.44418 12.3612 9.40258 12.4163 9.34932C12.4715 9.29606 12.5154 9.23223 12.5453 9.16165C12.5753 9.09107 12.5907 9.01518 12.5907 8.9385C12.5907 8.86183 12.5753 8.78594 12.5453 8.71536C12.5154 8.64478 12.4715 8.58095 12.4163 8.52769C12.3612 8.47443 12.2959 8.43282 12.2243 8.40535C12.1527 8.37788 12.0763 8.3651 11.9997 8.36778Z" fill="white"/>
<path d="M9.67971 5.51012H6.85791C6.78128 5.50743 6.7049 5.5202 6.63331 5.54767C6.56173 5.57515 6.4964 5.61676 6.44124 5.67002C6.38608 5.72328 6.34221 5.78711 6.31225 5.85769C6.28229 5.92827 6.26685 6.00416 6.26685 6.08084C6.26685 6.15752 6.28229 6.23341 6.31225 6.30399C6.34221 6.37458 6.38608 6.4384 6.44124 6.49167C6.4964 6.54493 6.56173 6.58653 6.63331 6.614C6.7049 6.64148 6.78128 6.65425 6.85791 6.65157H9.67971C9.75634 6.65425 9.83273 6.64148 9.90432 6.614C9.97591 6.58653 10.0412 6.54493 10.0964 6.49167C10.1515 6.4384 10.1954 6.37458 10.2254 6.30399C10.2553 6.23341 10.2708 6.15752 10.2708 6.08084C10.2708 6.00416 10.2553 5.92827 10.2254 5.85769C10.1954 5.78711 10.1515 5.72328 10.0964 5.67002C10.0412 5.61676 9.97591 5.57515 9.90432 5.54767C9.83273 5.5202 9.75634 5.50743 9.67971 5.51012Z" fill="white"/>
<path d="M7.42969 8.93944C7.42969 9.05253 7.39615 9.16309 7.33332 9.25712C7.2705 9.35115 7.1812 9.42443 7.07672 9.46771C6.97224 9.51098 6.85727 9.5223 6.74636 9.50024C6.63544 9.47817 6.53356 9.42371 6.4536 9.34375C6.37363 9.26378 6.31918 9.16191 6.29712 9.051C6.27506 8.94008 6.28638 8.82511 6.32966 8.72063C6.37293 8.61616 6.44622 8.52685 6.54025 8.46402C6.63427 8.40119 6.74482 8.36768 6.85791 8.36768C7.00956 8.36768 7.15498 8.42791 7.26221 8.53514C7.36944 8.64237 7.42969 8.7878 7.42969 8.93944Z" fill="white"/>
<path d="M11.9997 11.2211H8.64037C8.56374 11.2184 8.48736 11.2311 8.41577 11.2586C8.34419 11.2861 8.27886 11.3277 8.2237 11.381C8.16854 11.4342 8.12466 11.498 8.0947 11.5686C8.06474 11.6392 8.04932 11.7151 8.04932 11.7918C8.04932 11.8685 8.06474 11.9443 8.0947 12.0149C8.12466 12.0855 8.16854 12.1493 8.2237 12.2026C8.27886 12.2559 8.34419 12.2975 8.41577 12.3249C8.48736 12.3524 8.56374 12.3652 8.64037 12.3625H11.9997C12.0763 12.3652 12.1527 12.3524 12.2243 12.3249C12.2959 12.2975 12.3612 12.2559 12.4163 12.2026C12.4715 12.1493 12.5154 12.0855 12.5453 12.0149C12.5753 11.9443 12.5907 11.8685 12.5907 11.7918C12.5907 11.7151 12.5753 11.6392 12.5453 11.5686C12.5154 11.498 12.4715 11.4342 12.4163 11.381C12.3612 11.3277 12.2959 11.2861 12.2243 11.2586C12.1527 11.2311 12.0763 11.2184 11.9997 11.2211Z" fill="white"/>
<path d="M7.42969 11.792C7.42969 11.9051 7.39615 12.0156 7.33332 12.1097C7.2705 12.2037 7.1812 12.277 7.07672 12.3202C6.97224 12.3635 6.85727 12.3748 6.74636 12.3528C6.63544 12.3307 6.53356 12.2763 6.4536 12.1963C6.37363 12.1163 6.31918 12.0144 6.29712 11.9035C6.27506 11.7926 6.28638 11.6777 6.32966 11.5732C6.37293 11.4687 6.44622 11.3794 6.54025 11.3166C6.63427 11.2538 6.74482 11.2202 6.85791 11.2202C7.00956 11.2202 7.15498 11.2805 7.26221 11.3877C7.36944 11.4949 7.42969 11.6403 7.42969 11.792Z" fill="white"/>
<path d="M12.0004 0.357178H5.1419C4.54309 0.380347 3.97508 0.6286 3.55134 1.05234C3.12761 1.47607 2.87935 2.04409 2.85618 2.64289L2.19622 2.65829C1.60843 2.68184 1.05229 2.93083 0.643225 3.35358C0.23416 3.77633 0.00359531 4.34036 -0.000610352 4.92861V10.0774H1.14225V4.92861C1.14436 4.63709 1.25868 4.35759 1.46147 4.14816C1.66425 3.93873 1.93992 3.81545 2.23122 3.80395L2.85688 3.78575V14.0736C2.88005 14.6724 3.1283 15.2404 3.55204 15.6641C3.97578 16.0879 4.54379 16.3361 5.1426 16.3593H12.0011C11.9875 16.658 11.8627 16.9408 11.6513 17.1523C11.4398 17.3637 11.157 17.4885 10.8583 17.5021H2.28581C1.9871 17.4885 1.70427 17.3637 1.49283 17.1523C1.28139 16.9408 1.1566 16.658 1.14295 16.3593V11.2203H8.91153e-05V16.3572C0.0232587 16.956 0.271514 17.524 0.69525 17.9477C1.11899 18.3715 1.687 18.6197 2.28581 18.6429H10.8576C11.4564 18.6197 12.0244 18.3715 12.4481 17.9477C12.8719 17.524 13.1201 16.956 13.1433 16.3572H13.7151C14.3139 16.334 14.8819 16.0858 15.3056 15.662C15.7294 15.2383 15.9776 14.6703 16.0008 14.0715V4.9419L12.0004 0.357178ZM14.6298 5.00069H13.1433C12.8289 4.98279 12.5319 4.85063 12.3082 4.62907C12.0844 4.40751 11.9494 4.11183 11.9284 3.79765C11.9284 3.79765 11.9284 2.92213 11.9249 1.90035L14.6298 5.00069ZM14.8572 14.0722C14.8436 14.3709 14.7188 14.6537 14.5073 14.8651C14.2959 15.0766 14.0131 15.2014 13.7144 15.215H5.1426C4.84389 15.2014 4.56107 15.0766 4.34963 14.8651C4.13819 14.6537 4.01339 14.3709 3.99974 14.0722V2.64289C4.01339 2.34418 4.13819 2.06136 4.34963 1.84992C4.56107 1.63848 4.84389 1.51369 5.1426 1.50003H10.8569C10.8478 2.81645 10.8569 3.80045 10.8569 3.80045C10.878 4.39856 11.126 4.96621 11.5506 5.38804C11.9751 5.80987 12.5444 6.05423 13.1426 6.07146H14.8572V14.0722Z" fill="white"/>
</g>
<defs>
<clipPath id="clip0_1025_3384">
<rect width="16" height="18.2857" fill="white" transform="translate(0 0.357178)"/>
</clipPath>
</defs>
</svg>
