<svg width="32" height="32" viewBox="0 0 32 32" fill="none" xmlns="http://www.w3.org/2000/svg">
<path d="M4.35361 3.2816L28.9216 15.3872C29.0556 15.4532 29.1684 15.5554 29.2473 15.6823C29.3262 15.8091 29.368 15.9554 29.368 16.1048C29.368 16.2542 29.3262 16.4005 29.2473 16.5274C29.1684 16.6542 29.0556 16.7564 28.9216 16.8224L4.35201 28.928C4.21436 28.9956 4.06018 29.0223 3.90783 29.0047C3.75548 28.9872 3.61138 28.9262 3.49269 28.8291C3.374 28.732 3.28572 28.6028 3.23837 28.457C3.19102 28.3111 3.18659 28.1547 3.22561 28.0064L5.65921 18.8144C5.69866 18.6657 5.78017 18.5315 5.89397 18.4279C6.00777 18.3243 6.14903 18.2557 6.30081 18.2304L17.3104 16.3952C17.376 16.3843 17.4379 16.3573 17.4904 16.3165C17.5429 16.2757 17.5844 16.2225 17.6112 16.1616L17.64 16.0656C17.6549 15.9766 17.6394 15.8852 17.5958 15.8062C17.5522 15.7272 17.4832 15.6652 17.4 15.6304L17.3104 15.6048L6.24001 13.76C6.08852 13.7344 5.9476 13.6657 5.83411 13.5621C5.72061 13.4586 5.63934 13.3245 5.60001 13.176L3.22561 4.2048C3.18618 4.05639 3.1903 3.89976 3.23748 3.75362C3.28466 3.60748 3.37291 3.47801 3.49168 3.38067C3.61044 3.28332 3.75472 3.22222 3.90728 3.20465C4.05983 3.18709 4.21422 3.2138 4.35201 3.2816H4.35361Z" fill="#00A2B9"/>
</svg>
