<svg width="24" height="24" viewBox="0 0 24 24" fill="none" xmlns="http://www.w3.org/2000/svg">
<path d="M17.6597 16.3639C17.0254 16.3639 16.5112 15.8498 16.5112 15.2155V8.52807C16.5112 6.27418 14.6775 4.44043 12.4236 4.44043C10.1697 4.44043 8.33594 6.27413 8.33594 8.52807V12.4176C8.33594 13.0519 7.82177 13.5661 7.1875 13.5661C6.55323 13.5661 6.03906 13.0519 6.03906 12.4176V8.52807C6.03906 5.00762 8.90312 2.14355 12.4236 2.14355C15.944 2.14355 18.8081 5.00762 18.8081 8.52807V15.2155C18.8081 15.8498 18.2939 16.3639 17.6597 16.3639Z" fill="#B1B4B5"/>
<path d="M19.4119 23.3184H5.43672C4.13195 23.3184 3.07422 22.2607 3.07422 20.9559V12.8762C3.07422 11.5714 4.13195 10.5137 5.43672 10.5137H19.4119C20.7167 10.5137 21.7744 11.5714 21.7744 12.8762V20.9559C21.7744 22.2607 20.7167 23.3184 19.4119 23.3184Z" fill="#FDC427"/>
<path d="M5.12441 21.4144H5.00605C4.63326 21.4144 4.33105 21.1122 4.33105 20.7394V13.0926C4.33105 12.7198 4.63326 12.4176 5.00605 12.4176H5.12441C5.49721 12.4176 5.79941 12.7198 5.79941 13.0926V20.7394C5.79941 21.1122 5.49721 21.4144 5.12441 21.4144Z" fill="#FEDC7D"/>
</svg>
