<svg width="24" height="24" viewBox="0 0 24 24" fill="none" xmlns="http://www.w3.org/2000/svg">
<path fill-rule="evenodd" clip-rule="evenodd" d="M12 1.5C10.079 1.5 8.184 1.611 6.32 1.827C4.823 2.001 3.75 3.287 3.75 4.757V21.75C3.75003 21.8726 3.78011 21.9933 3.8376 22.1016C3.8951 22.2099 3.97826 22.3024 4.0798 22.3711C4.18135 22.4397 4.29818 22.4825 4.42008 22.4956C4.54197 22.5086 4.66521 22.4916 4.779 22.446L8.25 21.058L11.722 22.446C11.9005 22.5172 12.0995 22.5172 12.278 22.446L15.75 21.058L19.221 22.446C19.3348 22.4916 19.458 22.5086 19.5799 22.4956C19.7018 22.4825 19.8186 22.4397 19.9202 22.3711C20.0217 22.3024 20.1049 22.2099 20.1624 22.1016C20.2199 21.9933 20.25 21.8726 20.25 21.75V4.757C20.25 3.287 19.177 2.001 17.68 1.827C15.7945 1.60865 13.8981 1.49947 12 1.5ZM11.03 8.03C11.1037 7.96134 11.1628 7.87854 11.2038 7.78654C11.2448 7.69454 11.2668 7.59523 11.2686 7.49452C11.2704 7.39382 11.2518 7.29379 11.2141 7.2004C11.1764 7.10702 11.1203 7.02218 11.049 6.95096C10.9778 6.87974 10.893 6.8236 10.7996 6.78588C10.7062 6.74816 10.6062 6.72963 10.5055 6.73141C10.4048 6.73319 10.3055 6.75523 10.2135 6.79622C10.1215 6.83721 10.0387 6.89632 9.97 6.97L7.72 9.22C7.57955 9.36063 7.50066 9.55125 7.50066 9.75C7.50066 9.94875 7.57955 10.1394 7.72 10.28L9.97 12.53C10.0387 12.6037 10.1215 12.6628 10.2135 12.7038C10.3055 12.7448 10.4048 12.7668 10.5055 12.7686C10.6062 12.7704 10.7062 12.7518 10.7996 12.7141C10.893 12.6764 10.9778 12.6203 11.049 12.549C11.1203 12.4778 11.1764 12.393 11.2141 12.2996C11.2518 12.2062 11.2704 12.1062 11.2686 12.0055C11.2668 11.9048 11.2448 11.8055 11.2038 11.7135C11.1628 11.6215 11.1037 11.5387 11.03 11.47L10.06 10.5H13.125C13.6223 10.5 14.0992 10.6975 14.4508 11.0492C14.8025 11.4008 15 11.8777 15 12.375C15 12.8723 14.8025 13.3492 14.4508 13.7008C14.0992 14.0525 13.6223 14.25 13.125 14.25H12C11.8011 14.25 11.6103 14.329 11.4697 14.4697C11.329 14.6103 11.25 14.8011 11.25 15C11.25 15.1989 11.329 15.3897 11.4697 15.5303C11.6103 15.671 11.8011 15.75 12 15.75H13.125C13.5682 15.75 14.0071 15.6627 14.4166 15.4931C14.826 15.3235 15.1981 15.0749 15.5115 14.7615C15.8249 14.4481 16.0735 14.076 16.2431 13.6666C16.4127 13.2571 16.5 12.8182 16.5 12.375C16.5 11.9318 16.4127 11.4929 16.2431 11.0834C16.0735 10.674 15.8249 10.3019 15.5115 9.98852C15.1981 9.67512 14.826 9.42652 14.4166 9.25691C14.0071 9.0873 13.5682 9 13.125 9H10.061L11.03 8.03Z" fill="#00A2B9"/>
</svg>
