<svg width="24" height="24" viewBox="0 0 24 24" fill="none" xmlns="http://www.w3.org/2000/svg">
<path d="M7.85366 16.6341C5.09463 16.6341 3.71415 16.6341 2.85756 15.7766C2.30146 15.2215 2.10634 14.4468 2.03805 13.2195H21.4751C21.4068 14.4468 21.2107 15.2215 20.6556 15.7766C19.7961 16.6341 18.4166 16.6341 15.6585 16.6341H12.4878V20.5366H15.6585C15.8526 20.5366 16.0387 20.6137 16.1759 20.7509C16.3132 20.8881 16.3902 21.0742 16.3902 21.2683C16.3902 21.4624 16.3132 21.6485 16.1759 21.7857C16.0387 21.9229 15.8526 22 15.6585 22H7.85366C7.6596 22 7.47348 21.9229 7.33626 21.7857C7.19904 21.6485 7.12195 21.4624 7.12195 21.2683C7.12195 21.0742 7.19904 20.8881 7.33626 20.7509C7.47348 20.6137 7.6596 20.5366 7.85366 20.5366H11.0244V16.6341H7.85366ZM9.80488 2H13.7073C17.3863 2 19.2263 2 20.3688 3.14341C21.5122 4.28585 21.5122 6.12585 21.5122 9.80488V10.7805C21.5122 11.319 21.5122 11.8049 21.5063 12.2439H2.00683C2 11.8049 2 11.319 2 10.7805V9.80488C2 6.12585 2 4.28585 3.14341 3.14341C4.28585 2 6.12585 2 9.80488 2Z" fill="#00A2B9"/>
</svg>
