<svg width="19" height="16" viewBox="0 0 19 16" fill="none" xmlns="http://www.w3.org/2000/svg">
<g clip-path="url(#clip0_626_15122)">
<path d="M17.325 11.28V13.28C17.3259 13.4657 17.2809 13.6495 17.1931 13.8196C17.1052 13.9897 16.9764 14.1424 16.8147 14.2679C16.6531 14.3934 16.4623 14.489 16.2546 14.5485C16.0468 14.608 15.8267 14.6301 15.6082 14.6133C13.185 14.3904 10.8572 13.6894 8.8121 12.5667C6.90937 11.5431 5.29618 10.1775 4.0871 8.56668C2.75621 6.82748 1.92797 4.84734 1.66948 2.78668C1.6498 2.60233 1.67568 2.41652 1.74547 2.2411C1.81526 2.06567 1.92744 1.90447 2.07486 1.76776C2.22227 1.63105 2.4017 1.52182 2.60171 1.44703C2.80173 1.37224 3.01795 1.33352 3.2366 1.33335H5.5991C5.98128 1.33016 6.35179 1.44473 6.64156 1.6557C6.93134 1.86667 7.12061 2.15964 7.1741 2.48001C7.27382 3.12006 7.45874 3.7485 7.72535 4.35335C7.83131 4.59196 7.85424 4.85129 7.79143 5.1006C7.72862 5.34991 7.58271 5.57875 7.37098 5.76001L6.37085 6.60668C7.4919 8.27571 9.12431 9.65764 11.0959 10.6067L12.096 9.76001C12.3101 9.58077 12.5804 9.45725 12.8749 9.40408C13.1694 9.35091 13.4757 9.37032 13.7576 9.46001C14.4721 9.68571 15.2144 9.84227 15.9705 9.92668C16.353 9.97237 16.7024 10.1355 16.9521 10.385C17.2019 10.6345 17.3346 10.9531 17.325 11.28Z" stroke="#6C6966" stroke-width="1.5" stroke-linecap="round" stroke-linejoin="round"/>
</g>
<defs>
<clipPath id="clip0_626_15122">
<rect width="18.9" height="16" fill="white"/>
</clipPath>
</defs>
</svg>
