<svg width="16" height="17" viewBox="0 0 16 17" fill="none" xmlns="http://www.w3.org/2000/svg">
<path d="M11.9041 8.92445C12.1723 8.36415 12.3114 7.75084 12.3113 7.12966C12.2978 5.99531 11.8377 4.91201 11.0307 4.11465C10.2238 3.31728 9.1351 2.87012 8.00067 2.87012C6.86625 2.87012 5.77754 3.31728 4.97061 4.11465C4.16368 4.91201 3.70358 5.99531 3.69006 7.12966C3.68981 7.75085 3.82897 8.36418 4.09727 8.92445L2.34229 11.9188L2.55722 11.9617C2.55722 11.9617 3.59331 12.1693 4.66063 12.3903C5.37217 13.1821 6.06902 13.9604 6.06902 13.9604L6.2117 14.1202L7.82156 11.3732C7.94023 11.3808 8.05927 11.3808 8.17795 11.3732L9.7878 14.1202L9.93048 13.9604C9.93048 13.9604 10.6279 13.1821 11.3389 12.3903C12.4056 12.1705 13.4417 11.9617 13.4423 11.9617L13.6572 11.9188L11.9041 8.92445ZM5.20684 11.549L5.17867 11.522L5.14071 11.5141C4.67104 11.3806 4.19892 11.2452 3.94357 11.1724L4.70778 9.86807C5.25056 10.5004 5.96435 10.9627 6.76343 11.1993L6.07331 12.3793C5.88287 12.2005 5.53751 11.8704 5.20684 11.549ZM8.00036 3.86402C8.63915 3.86268 9.26396 4.05088 9.79574 4.4048C10.3275 4.75872 10.7423 5.26244 10.9877 5.85222C11.2331 6.44199 11.298 7.0913 11.1742 7.71797C11.0504 8.34465 10.7434 8.9205 10.2922 9.37266C9.84101 9.82482 9.2658 10.133 8.63939 10.2581C8.01298 10.3832 7.36353 10.3196 6.77325 10.0755C6.18296 9.83135 5.67838 9.41758 5.32335 8.88655C4.96832 8.35551 4.77881 7.73109 4.77881 7.0923C4.77897 6.23738 5.11824 5.41743 5.72219 4.81233C6.32614 4.20724 7.14544 3.8658 8.00036 3.86402ZM10.8227 11.5214L10.7945 11.5483C10.4638 11.8698 10.1209 12.1999 9.93109 12.3787L9.23791 11.1956C10.037 10.959 10.7508 10.4967 11.2936 9.8644L12.0578 11.1687C11.8024 11.2416 11.3303 11.3769 10.8606 11.5104L10.8227 11.5214Z" fill="white"/>
<path d="M8.00041 9.6163C8.49939 9.6163 8.98715 9.46833 9.40204 9.19111C9.81692 8.9139 10.1403 8.51988 10.3312 8.05889C10.5222 7.59789 10.5721 7.09062 10.4748 6.60124C10.3775 6.11185 10.1372 5.66232 9.78434 5.30949C9.43151 4.95666 8.98199 4.71638 8.4926 4.61903C8.00321 4.52169 7.49594 4.57165 7.03495 4.7626C6.57396 4.95355 6.17994 5.27692 5.90272 5.6918C5.62551 6.10668 5.47754 6.59445 5.47754 7.09342C5.47819 7.76233 5.7442 8.40365 6.21719 8.87664C6.69018 9.34963 7.33151 9.61565 8.00041 9.6163ZM8.00041 5.5595C8.30394 5.5595 8.60066 5.64952 8.85302 5.81816C9.10539 5.98681 9.30207 6.2265 9.4182 6.50694C9.53433 6.78738 9.56468 7.09595 9.50542 7.39364C9.44616 7.69132 9.29995 7.96475 9.08528 8.17933C8.87061 8.39392 8.59712 8.54002 8.29941 8.59916C8.0017 8.65831 7.69313 8.62783 7.41274 8.5116C7.13235 8.39536 6.89273 8.19857 6.72419 7.94614C6.55565 7.6937 6.46574 7.39695 6.46587 7.09342C6.467 6.68707 6.62914 6.29773 6.91676 6.01068C7.20439 5.72363 7.59406 5.56227 8.00041 5.56195V5.5595Z" fill="white"/>
<path d="M13.0773 0.499756H2.9062L0 5.50018V7.5001C0.00109751 8.04097 0.176537 8.56707 0.500287 9.00035L0.515596 14.5004C0.524138 15.0391 0.746159 15.5522 1.13287 15.9272C1.51959 16.3023 2.03936 16.5084 2.57798 16.5004H7.50002V15.4998H2.57798C2.30385 15.5054 2.03827 15.4042 1.83739 15.2176C1.6365 15.031 1.51604 14.7736 1.50147 14.4998V9.50002H2.48123C2.7748 9.46862 3.05912 9.37875 3.31741 9.23572C3.5757 9.09269 3.80274 8.8994 3.98515 8.66723C3.8974 8.44713 3.82856 8.21994 3.7794 7.98814C3.43588 8.32254 2.97653 8.51141 2.49715 8.51537C1.74519 8.51537 0.999349 8.19021 0.999349 7.49949V6.50014H3.73654C3.78832 6.15637 3.88295 5.82043 4.01822 5.50018H1.01772L3.34464 1.50033H12.6358L15.0147 5.50018H11.9787C12.1142 5.8204 12.209 6.15634 12.261 6.50014H14.9982V7.5001C14.9909 8.19021 14.1948 8.50067 13.498 8.50006C13.0223 8.50795 12.5619 8.33254 12.212 8.01018C12.1637 8.23093 12.0976 8.44739 12.0142 8.65744C12.1605 8.92009 12.3761 9.13749 12.6376 9.28588C12.899 9.43426 13.1962 9.50792 13.4967 9.4988C13.6431 9.4988 14.3687 9.52268 14.4967 9.4988V14.4986C14.4779 14.7741 14.3536 15.0318 14.1497 15.218C13.9457 15.4042 13.6779 15.5047 13.4018 15.4986H8.49998V16.4985H13.4055C13.9475 16.5078 14.4714 16.303 14.8635 15.9287C15.2557 15.5543 15.4845 15.0405 15.5003 14.4986V9.00035C15.8569 8.58494 16.0365 8.04637 16.0006 7.5001V5.50018L13.0773 0.499756Z" fill="white"/>
</svg>
