<svg width="24" height="24" viewBox="0 0 24 24" fill="none" xmlns="http://www.w3.org/2000/svg">
<path d="M2.02823 8.92125C2.48476 7.57848 3.23351 6.34388 4.22497 5.29908C4.30706 5.21281 4.41395 5.15174 4.53218 5.12356C4.65041 5.09538 4.77469 5.10135 4.88938 5.14072L7.25484 5.9475C7.42287 6.00459 7.6018 6.02613 7.77934 6.01065C7.95688 5.99517 8.12882 5.94303 8.28333 5.85782C8.43785 5.77261 8.57129 5.65635 8.67448 5.51703C8.77766 5.3777 8.84815 5.21862 8.88109 5.05071L9.33331 2.69038C9.35536 2.57566 9.41241 2.46977 9.49723 2.3861C9.58206 2.30244 9.69085 2.24475 9.80988 2.22031C11.2548 1.92656 12.748 1.92656 14.1929 2.22031C14.4364 2.27032 14.6243 2.45535 14.6695 2.69038L15.1217 5.05071C15.1541 5.2189 15.2243 5.37833 15.3273 5.51796C15.4304 5.65759 15.5638 5.77409 15.7185 5.85939C15.8732 5.94468 16.0454 5.99674 16.2231 6.01196C16.4009 6.02717 16.58 6.00518 16.748 5.9475L19.1134 5.14072C19.2281 5.10135 19.3524 5.09538 19.4706 5.12356C19.5888 5.15174 19.6957 5.21281 19.7778 5.29908C20.7685 6.34415 21.5166 7.5787 21.9728 8.92125C22.0105 9.03227 22.0127 9.15153 21.9792 9.26377C21.9458 9.37601 21.8781 9.47614 21.785 9.55134L19.8683 11.1032C19.7318 11.2132 19.6221 11.3505 19.5469 11.5054C19.4716 11.6603 19.4326 11.8291 19.4326 12C19.4326 12.1709 19.4716 12.3397 19.5469 12.4946C19.6221 12.6495 19.7318 12.7868 19.8683 12.8968L21.785 14.4487C21.9763 14.6037 22.0494 14.8521 21.9728 15.0788C21.5169 16.4214 20.7687 17.656 19.7778 18.701C19.6957 18.7872 19.5888 18.8483 19.4706 18.8765C19.3524 18.9046 19.2281 18.8987 19.1134 18.8593L16.748 18.0525C16.5799 17.9954 16.401 17.9739 16.2235 17.9894C16.0459 18.0049 15.874 18.057 15.7195 18.1422C15.5649 18.2274 15.4315 18.3437 15.3283 18.483C15.2251 18.6223 15.1547 18.7814 15.1217 18.9493L14.6695 21.3096C14.6475 21.4247 14.5903 21.5308 14.5051 21.6146C14.4199 21.6983 14.3106 21.7558 14.1912 21.7797C12.7468 22.0734 11.2542 22.0734 9.80988 21.7797C9.69053 21.7556 9.58136 21.698 9.4962 21.6143C9.41105 21.5306 9.35375 21.4246 9.33157 21.3096L8.88109 18.9493C8.84869 18.7811 8.77854 18.6217 8.67549 18.4821C8.57244 18.3424 8.43895 18.2259 8.28427 18.1406C8.12959 18.0553 7.95742 18.0033 7.77967 17.9881C7.60192 17.9729 7.42284 17.9948 7.25484 18.0525L4.88938 18.8593C4.77469 18.8987 4.65041 18.9046 4.53218 18.8765C4.41395 18.8483 4.30706 18.7872 4.22497 18.701C3.23413 17.656 2.48598 16.4214 2.02997 15.0788C1.99233 14.9678 1.99009 14.8485 2.02356 14.7363C2.05702 14.624 2.12465 14.5239 2.21781 14.4487L4.13453 12.8968C4.27072 12.7866 4.38018 12.6493 4.45526 12.4944C4.53034 12.3395 4.56925 12.1708 4.56925 12C4.56925 11.8292 4.53034 11.6605 4.45526 11.5056C4.38018 11.3507 4.27072 11.2134 4.13453 11.1032L2.21781 9.55134C2.12465 9.47614 2.05702 9.37601 2.02356 9.26377C1.99009 9.15153 1.99059 9.03227 2.02823 8.92125ZM8.95588 12C8.95588 12.7737 9.27656 13.5156 9.84738 14.0627C10.4182 14.6098 11.1924 14.9171 11.9997 14.9171C12.8069 14.9171 13.5811 14.6098 14.1519 14.0627C14.7228 13.5156 15.0434 12.7737 15.0434 12C15.0434 11.2264 14.7228 10.4844 14.1519 9.93733C13.5811 9.39027 12.8069 9.08294 11.9997 9.08294C11.1924 9.08294 10.4182 9.39027 9.84738 9.93733C9.27656 10.4844 8.95588 11.2264 8.95588 12Z" fill="#00A2B9"/>
</svg>
