<svg width="64" height="64" viewBox="0 0 64 64" fill="none" xmlns="http://www.w3.org/2000/svg">
<g clip-path="url(#clip0_3345_81399)">
<path d="M36.178 24.8889H54.3037C55.7001 24.8889 56.5514 26.4248 55.8113 27.6089L39.7335 53.3334H18.4002L36.178 24.8889Z" fill="url(#paint0_linear_3345_81399)"/>
<path d="M24.8889 8.88892H46.2222L28.4445 37.3334H10.3187C8.92235 37.3334 8.07107 35.7974 8.81112 34.6134L24.8889 8.88892Z" fill="url(#paint1_linear_3345_81399)"/>
<path d="M64 0H0V64H64V0Z" fill="#F7E82E"/>
<path fill-rule="evenodd" clip-rule="evenodd" d="M12.9023 23.1931C14.6181 22.2462 17.021 21.4998 18.9454 21.4998C22.6204 21.4998 23.4711 23.1931 25.2769 23.1931C27.0827 23.1931 28.9375 21.4998 32.2771 21.4998C35.3161 21.4998 36.9214 23.1931 39.6209 23.1931C42.3265 23.1931 41.7641 21.4998 45.572 21.4998C49.3615 21.4998 51.0957 23.1931 51.0957 23.1931V27.5102C51.0957 27.5102 49.0731 25.7085 45.8931 25.6655C42.7376 25.6287 42.8214 27.5102 39.6291 27.5102C36.4347 27.5102 36.1791 25.6655 32.4284 25.6655C28.6799 25.6655 28.1134 27.5102 25.2176 27.5102C22.3136 27.5102 21.7696 25.5899 18.745 25.6287C15.7203 25.6655 12.9023 27.5102 12.9023 27.5102V23.1931Z" fill="#28A8E0"/>
<path fill-rule="evenodd" clip-rule="evenodd" d="M12.9023 33.2608C14.6181 32.3119 17.021 31.5696 18.9454 31.5696C22.6204 31.5696 23.4711 33.2608 25.2769 33.2608C27.0827 33.2608 28.9375 31.5696 32.2771 31.5696C35.3161 31.5696 36.9214 33.2608 39.6209 33.2608C42.3265 33.2608 41.7641 31.5696 45.572 31.5696C49.3615 31.5696 51.0957 33.2608 51.0957 33.2608V37.58C51.0957 37.58 49.0731 35.766 45.8931 35.7333C42.7376 35.7026 42.8214 37.58 39.6291 37.58C36.4347 37.58 36.1791 35.7333 32.4284 35.7333C28.6799 35.7333 28.1134 37.58 25.2176 37.58C22.3136 37.58 21.7696 35.6638 18.745 35.7026C15.7203 35.7333 12.9023 37.58 12.9023 37.58V33.2608Z" fill="#28A8E0"/>
<path fill-rule="evenodd" clip-rule="evenodd" d="M12.9023 43.3205C14.6181 42.3675 17.021 41.6272 18.9454 41.6272C22.6204 41.6272 23.4711 43.3205 25.2769 43.3205C27.0827 43.3205 28.9375 41.6272 32.2771 41.6272C35.3161 41.6272 36.9214 43.3205 39.6209 43.3205C42.3265 43.3205 41.7641 41.6272 45.572 41.6272C49.3615 41.6272 51.0957 43.3205 51.0957 43.3205V47.6519C51.0957 47.6519 49.0731 45.8359 45.8931 45.7971C42.7376 45.7643 42.8214 47.6519 39.6291 47.6519C36.4347 47.6519 36.1791 45.7971 32.4284 45.7971C28.6799 45.7971 28.1134 47.6519 25.2176 47.6519C22.3136 47.6519 21.7696 45.7296 18.745 45.7643C15.7203 45.7971 12.9023 47.6519 12.9023 47.6519V43.3205Z" fill="#28A8E0"/>
<path fill-rule="evenodd" clip-rule="evenodd" d="M30.1891 57.284L35.0338 32.9417L17.8206 40.5125L27.8802 8.55029H36.0748L26.5244 30.7085L43.5208 23.833L30.1891 57.284Z" fill="#E62A2B"/>
</g>
<defs>
<linearGradient id="paint0_linear_3345_81399" x1="22.5858" y1="18.6111" x2="45.2862" y2="137.364" gradientUnits="userSpaceOnUse">
<stop stop-color="#00A2B9"/>
<stop offset="0.235" stop-color="#79C0CA"/>
<stop offset="0.475" stop-color="#73CFDC"/>
<stop offset="0.735" stop-color="#79C0CA"/>
<stop offset="1" stop-color="#00A2B9"/>
</linearGradient>
<linearGradient id="paint1_linear_3345_81399" x1="8.48863" y1="53.4731" x2="60.5194" y2="47.3909" gradientUnits="userSpaceOnUse">
<stop stop-color="#00A2B9"/>
<stop offset="0.235" stop-color="#79C0CA"/>
<stop offset="0.475" stop-color="#73CFDC"/>
<stop offset="0.735" stop-color="#79C0CA"/>
<stop offset="1" stop-color="#00A2B9"/>
</linearGradient>
<clipPath id="clip0_3345_81399">
<rect width="64" height="64" fill="white"/>
</clipPath>
</defs>
</svg>
